<svg width="26" height="24" viewBox="0 0 26 24" fill="none" xmlns="http://www.w3.org/2000/svg">
<path d="M19.3264 9H21C22.6567 9 24 10.3431 24 12C24 13.6569 22.6567 15 21 15H13C11.3433 15 10 13.6569 10 12C10 11.8007 10.0195 11.6058 10.0566 11.4174C10.0847 11.2744 10.123 11.1349 10.1707 11H8.1001C8.06836 11.1556 8.04395 11.3139 8.02734 11.4744C8.00928 11.6472 8 11.8225 8 12C8 13.0355 8.3147 13.9976 8.854 14.7955C8.90088 14.8649 8.94946 14.9331 8.99951 15C9.91187 16.2145 11.3643 17 13 17H21C23.7615 17 26 14.7614 26 12C26 9.23859 23.7615 7 21 7H17.8989C18.4849 7.5741 18.9702 8.25037 19.3264 9Z" fill="black"/>
<path d="M5 7C2.23853 7 0 9.23859 0 12C0 14.7614 2.23853 17 5 17H8.10107C7.51514 16.4259 7.02979 15.7496 6.67358 15H5C3.34326 15 2 13.6569 2 12C2 10.3431 3.34326 9 5 9H13C14.6567 9 16 10.3431 16 12C16 12.3506 15.9399 12.6872 15.8293 13H17.8999C17.9656 12.6769 18 12.3425 18 12C18 10.9645 17.6853 10.0024 17.146 9.20447C17.0991 9.13507 17.0505 9.06689 17.0005 9C16.0881 7.78558 14.6357 7 13 7L5 7Z" fill="black"/>
</svg>
