<svg width="24" height="24" viewBox="0 0 24 24" fill="none" xmlns="http://www.w3.org/2000/svg">
<path fill-rule="evenodd" clip-rule="evenodd" d="M16 8.00002C16 10.2092 14.2092 12 12 12C9.79087 12 8.00001 10.2092 8.00001 8.00002C8.00001 5.79087 9.79087 4.00001 12 4.00001C14.2092 4.00001 16 5.79087 16 8.00002ZM14 8.00002C14 9.10459 13.1046 10 12 10C10.8954 10 10 9.10459 10 8.00002C10 6.89545 10.8954 6.00001 12 6.00001C13.1046 6.00001 14 6.89545 14 8.00002Z" fill="black"/>
<path fill-rule="evenodd" clip-rule="evenodd" d="M4 8.00051C4 12.0151 8.53403 19.053 10.7753 22.2868C11.5111 23.3484 11.9997 24 11.9997 24C11.9997 24 12.4884 23.3484 13.2243 22.2868C15.4655 19.0532 19.9995 12.0148 19.9995 7.99975C19.9995 3.58161 16.4179 0 11.9997 0C7.58161 0 4 3.58237 4 8.00051ZM14.2846 16.9712C13.4787 18.3144 12.6705 19.5498 11.9998 20.5366C11.329 19.5497 10.5208 18.3143 9.71487 16.971C8.73976 15.3458 7.7892 13.5978 7.08825 11.9623C6.36595 10.2769 6 8.91542 6 7.99975C6 4.68618 8.68618 2 11.9997 2C15.3133 2 17.9995 4.68693 17.9995 8.0005C17.9995 8.91635 17.6335 10.2772 16.9112 11.9625C16.2103 13.5981 15.2597 15.346 14.2846 16.9712Z" fill="black"/>
</svg>
