<svg width="24" height="24" viewBox="0 0 24 24" fill="none" xmlns="http://www.w3.org/2000/svg">
    <path
        d="M12 16C14.2091 16 16 14.2091 16 12C16 9.79086 14.2091 8 12 8C11.59 8 11.1945 8.06167 10.8221 8.17624C11.5166 8.48982 12 9.18846 12 10C12 11.1046 11.1046 12 10 12C9.18846 12 8.48982 11.5166 8.17624 10.8221C8.06167 11.1945 8 11.59 8 12C8 14.2091 9.79086 16 12 16Z"
        fill="black" />
    <path fill-rule="evenodd" clip-rule="evenodd"
        d="M24 12C24 12 20 4 12 4C4 4 0 12 0 12C0 12 4 20 12 20C20 20 24 12 24 12ZM19.5662 14.6054C19.5727 14.5988 19.5793 14.5923 19.5858 14.5858C20.4714 13.7002 21.1401 12.8093 21.5859 12.1406C21.618 12.0925 21.6489 12.0456 21.6785 12C21.6489 11.9544 21.618 11.9075 21.5859 11.8594C21.1401 11.1907 20.4714 10.2998 19.5858 9.41421C19.5793 9.40768 19.5727 9.40115 19.5662 9.39463C19.8473 10.2113 20 11.0878 20 12C20 12.9122 19.8473 13.7887 19.5662 14.6054ZM12 6C15.3137 6 18 8.68629 18 12C18 15.3137 15.3137 18 12 18C8.68629 18 6 15.3137 6 12C6 8.68629 8.68629 6 12 6ZM4.43383 9.39463C4.15266 10.2113 4 11.0878 4 12C4 12.9122 4.15266 13.7887 4.43383 14.6054C4.42728 14.5988 4.42074 14.5923 4.41421 14.5858C3.52863 13.7002 2.85989 12.8093 2.4141 12.1406C2.382 12.0925 2.35113 12.0456 2.32147 12C2.35113 11.9544 2.382 11.9075 2.4141 11.8594C2.85989 11.1907 3.52863 10.2998 4.41421 9.41421C4.42074 9.40768 4.42728 9.40116 4.43383 9.39463Z"
        fill="black" />
</svg>