<svg width="24" height="24" viewBox="0 0 24 24" fill="none" xmlns="http://www.w3.org/2000/svg">
    <path fill-rule="evenodd" clip-rule="evenodd"
        d="M24 12C24 18.627 18.6274 24 12 24C5.37256 24 0 18.627 0 12C0 5.37305 5.37256 0 12 0C18.6274 0 24 5.37305 24 12ZM11 15.0244V13H7.02685C7.07109 13.8422 7.16717 14.6773 7.29429 15.4784C8.45022 15.2589 9.71163 15.086 11 15.0244ZM11 17.0269C9.85617 17.0869 8.72552 17.2426 7.67536 17.4418C7.76932 17.8538 7.86756 18.2473 7.96623 18.6173C8.20925 19.5286 8.4521 20.2874 8.63345 20.8163C8.72405 21.0806 8.79911 21.2869 8.8509 21.4256C8.86187 21.455 8.87178 21.4813 8.88058 21.5045C9.55802 21.7267 10.2674 21.8785 11 21.9512V17.0269ZM6.35229 20.2543C6.24921 19.9124 6.14147 19.5366 6.03376 19.1327C5.92921 18.7406 5.8242 18.3203 5.7233 17.8773C5.60772 17.9068 5.49413 17.9365 5.38266 17.9662C4.96351 18.078 4.57662 18.1898 4.22953 18.2955C4.83826 19.046 5.55352 19.7066 6.35229 20.2543ZM3.09517 16.5553C2.53902 15.4701 2.17538 14.27 2.04932 13H5.02437C5.07215 13.9989 5.18681 14.9817 5.33825 15.9116C5.17721 15.9522 5.02013 15.993 4.86734 16.0338C4.18788 16.215 3.58793 16.3962 3.09517 16.5553ZM7.02685 11H11V8.97563C9.71163 8.914 8.45022 8.74113 7.29429 8.52159C7.16717 9.32266 7.07109 10.1578 7.02685 11ZM13 8.97563V11H16.9731C16.9289 10.1578 16.8328 9.32266 16.7057 8.52158C15.5498 8.74112 14.2884 8.914 13 8.97563ZM16.9731 13C16.9289 13.8422 16.8328 14.6773 16.7057 15.4784C15.5498 15.2589 14.2884 15.086 13 15.0244V13H16.9731ZM18.9756 13H21.9507C21.8246 14.27 21.461 15.4701 20.9048 16.5553C20.4121 16.3962 19.8121 16.215 19.1327 16.0338C18.9799 15.993 18.8228 15.9522 18.6617 15.9116C18.8132 14.9817 18.9278 13.9989 18.9756 13ZM19.7705 18.2955C19.4234 18.1898 19.0365 18.078 18.6173 17.9662C18.5059 17.9365 18.3923 17.9068 18.2767 17.8773C18.1758 18.3203 18.0708 18.7406 17.9662 19.1327C17.8585 19.5366 17.7508 19.9124 17.6477 20.2543C18.4465 19.7066 19.1617 19.046 19.7705 18.2955ZM15.1194 21.5045C14.442 21.7267 13.7326 21.8785 13 21.9512V17.0269C14.1438 17.0869 15.2745 17.2426 16.3246 17.4418C16.2307 17.8538 16.1324 18.2473 16.0338 18.6173C15.7908 19.5286 15.5479 20.2874 15.3666 20.8163C15.2759 21.0806 15.2009 21.2869 15.1491 21.4256C15.1381 21.455 15.1282 21.4813 15.1194 21.5045ZM18.9756 11C18.9278 10.0011 18.8132 9.01833 18.6617 8.0884C18.8228 8.04779 18.9799 8.00698 19.1327 7.96624C19.8121 7.78505 20.4121 7.60378 20.9048 7.44474C21.461 8.5299 21.8246 9.73002 21.9507 11H18.9756ZM19.7705 5.70451C19.1617 4.95397 18.4465 4.29337 17.6477 3.74572C17.7508 4.08761 17.8585 4.46343 17.9662 4.86734C18.0708 5.25943 18.1758 5.67973 18.2767 6.12271C18.3923 6.09317 18.5059 6.06349 18.6173 6.03376C19.0365 5.92199 19.4234 5.81025 19.7705 5.70451ZM15.1194 2.49549C15.1282 2.51868 15.1381 2.54501 15.1491 2.57436C15.2009 2.71309 15.2759 2.91944 15.3666 3.1837C15.5479 3.71261 15.7908 4.47137 16.0338 5.38266C16.1324 5.7527 16.2307 6.1462 16.3246 6.55818C15.2745 6.75736 14.1438 6.91308 13 6.97314V2.04883C13.7326 2.12152 14.442 2.27329 15.1194 2.49549ZM11 6.97314C9.85617 6.91308 8.72552 6.75736 7.67536 6.55818C7.76932 6.1462 7.86756 5.7527 7.96623 5.38266C8.20925 4.47137 8.4521 3.71261 8.63345 3.1837C8.72405 2.91944 8.79911 2.71309 8.8509 2.57436C8.86186 2.54501 8.87178 2.51868 8.88058 2.49549C9.55802 2.27329 10.2674 2.12152 11 2.04883V6.97314ZM6.35229 3.74572C5.55351 4.29337 4.83826 4.95398 4.22953 5.70451C4.57662 5.81025 4.96351 5.92199 5.38266 6.03376C5.49413 6.06349 5.60772 6.09317 5.7233 6.12271C5.8242 5.67973 5.92921 5.25943 6.03376 4.86734C6.14147 4.46343 6.24921 4.08762 6.35229 3.74572ZM3.09517 7.44474C3.58793 7.60378 4.18788 7.78505 4.86734 7.96624C5.02013 8.00698 5.17721 8.04779 5.33825 8.0884C5.18681 9.01833 5.07215 10.0011 5.02437 11H2.04932C2.17538 9.73002 2.53902 8.5299 3.09517 7.44474Z"
        fill="black" />
</svg>