<svg width="24" height="24" viewBox="0 0 24 24" fill="none" xmlns="http://www.w3.org/2000/svg">
    <path fill-rule="evenodd" clip-rule="evenodd"
        d="M12 8.22658L8.84548 5.14679C7.27932 3.61774 4.72068 3.61774 3.15452 5.14679C1.61516 6.64969 1.61516 9.06604 3.15452 10.5689L12 19.2049L20.8455 10.5689C22.3848 9.06604 22.3848 6.64969 20.8455 5.14679C19.2793 3.61774 16.7207 3.61774 15.1545 5.14679L12 8.22658ZM12 22L1.75736 12C-0.585786 9.71236 -0.585786 6.00337 1.75736 3.71573C4.1005 1.42809 7.8995 1.42809 10.2426 3.71573L12 5.43146L13.7574 3.71573C16.1005 1.42809 19.8995 1.42809 22.2426 3.71573C24.5858 6.00337 24.5858 9.71236 22.2426 12L12 22Z"
        fill="black" />
</svg>