<svg width="24" height="24" viewBox="0 0 24 24" fill="none" xmlns="http://www.w3.org/2000/svg">
    <path fill-rule="evenodd" clip-rule="evenodd"
        d="M3 4L7 0L12 5L17 0L21 4L16 9L16.1737 9.17368C18.4688 10.5799 20 13.1111 20 16C20 20.4183 16.4183 24 12 24C7.58172 24 4 20.4183 4 16C4 13.0205 5.62883 10.4214 8.04463 9.04463L3 4ZM10.0642 8.23579C10.6841 8.08175 11.3325 8 12 8C12.058 8 12.1158 8.00062 12.1734 8.00184L7 2.82843L5.82843 4L10.0642 8.23579ZM14.5858 7.58579L18.1716 4L17 2.82843L13.4142 6.41421L14.5858 7.58579ZM18 16C18 19.3137 15.3137 22 12 22C8.68629 22 6 19.3137 6 16C6 12.6863 8.68629 10 12 10C15.3137 10 18 12.6863 18 16Z"
        fill="black" />
</svg>