<svg width="24" height="24" viewBox="0 0 24 24" fill="none" xmlns="http://www.w3.org/2000/svg">
    <path fill-rule="evenodd" clip-rule="evenodd"
        d="M4.01739 6.6654C3.38468 5.95788 3 5.02386 3 4C3 1.79086 4.79086 0 7 0C9.20914 0 11 1.79086 11 4C11 4.04233 10.9993 4.08451 10.998 4.12652C11.3182 4.04393 11.654 4 12 4C12.346 4 12.6818 4.04393 13.002 4.12652C13.0007 4.08451 13 4.04233 13 4C13 1.79086 14.7909 0 17 0C19.2091 0 21 1.79086 21 4C21 5.02386 20.6153 5.95788 19.9826 6.6654C22.3569 7.78529 24 10.2008 24 13L21 20H17.7143L16 24H8L6.28571 20H3L0 13C0 10.2008 1.64307 7.78529 4.01739 6.6654ZM5 4C5 5.10457 5.89543 6 7 6C8.10457 6 9 5.10457 9 4C9 2.89543 8.10457 2 7 2C5.89543 2 5 2.89543 5 4ZM5.42857 18L5 17C5 14.2008 6.64307 11.7853 9.01739 10.6654C8.40539 9.98104 8.02546 9.08478 8.00124 8.10027C7.67774 8.03452 7.3429 8 7 8C4.36565 8 2.20713 10.0373 2.01405 12.6223L4.31879 18H5.42857ZM17 6C18.1046 6 19 5.10457 19 4C19 2.89543 18.1046 2 17 2C15.8954 2 15 2.89543 15 4C15 5.10457 15.8954 6 17 6ZM19.6812 18H18.5714L19 17C19 14.2008 17.3569 11.7853 14.9826 10.6654C15.5946 9.98104 15.9745 9.08478 15.9988 8.10027C16.3223 8.03452 16.6571 8 17 8C19.6344 8 21.7929 10.0373 21.9859 12.6223L19.6812 18ZM14 8C14 9.10457 13.1046 10 12 10C10.8954 10 10 9.10457 10 8C10 6.89543 10.8954 6 12 6C13.1046 6 14 6.89543 14 8ZM12 12C9.36565 12 7.20713 14.0373 7.01405 16.6223L9.31879 22H14.6812L16.9859 16.6223C16.7929 14.0373 14.6344 12 12 12Z"
        fill="black" />
</svg>