<svg width="24" height="24" viewBox="0 0 24 24" fill="none" xmlns="http://www.w3.org/2000/svg">
    <path
        d="M14 2L12 4V3C7.02942 3 3 7.02954 3 12C3 15.6891 5.2196 18.8619 8.40039 20.2516L7.59961 22.0844C3.71667 20.3878 1 16.5123 1 12C1 5.92493 5.92493 1 12 1V0L14 2Z"
        fill="black" />
    <path
        d="M21 12C21 8.31091 18.7804 5.13806 15.5996 3.74841L16.4004 1.91565C20.2833 3.61218 23 7.48767 23 12C23 18.0751 18.0751 23 12 23V24L10 22L12 20V21C16.9706 21 21 16.9705 21 12Z"
        fill="black" />
    <path fill-rule="evenodd" clip-rule="evenodd"
        d="M11 6H13V8.12598C13.3671 8.22046 13.7137 8.36572 14.0321 8.55383L15.5355 7.05029L16.9497 8.46448L15.4462 9.96814C15.6343 10.2865 15.7795 10.6331 15.874 11H18V13H15.874C15.7795 13.3671 15.6343 13.7136 15.4462 14.032L16.9497 15.5356L15.5355 16.9498L14.032 15.4462C13.8381 15.5607 13.6338 15.6594 13.4208 15.7404C13.2839 15.7924 13.1436 15.837 13 15.874V18H11V15.874C10.6329 15.7795 10.2864 15.6343 9.96802 15.4462L8.46448 16.9498L7.05029 15.5356L8.55383 14.032C8.36572 13.7136 8.22046 13.3671 8.12598 13H6V11H8.12598C8.22046 10.6331 8.36572 10.2865 8.55383 9.96814L7.05029 8.46448L8.46448 7.05029L9.96802 8.55383C10.1841 8.42615 10.4132 8.31812 10.653 8.23242C10.7664 8.19189 10.8821 8.15637 11 8.12598V6ZM10 12C10 11.4478 10.2239 10.9478 10.5858 10.5858C10.9478 10.2239 11.4478 10 12 10C12.5522 10 13.0522 10.2239 13.4142 10.5858C13.7761 10.9478 14 11.4478 14 12C14 12.5522 13.7761 13.0524 13.4142 13.4143C13.3689 13.4596 13.3217 13.5026 13.2722 13.5433C12.9265 13.8286 12.4833 14 12 14C11.4482 14 10.9486 13.7766 10.5868 13.4153L10.5858 13.4143C10.2239 13.0524 10 12.5522 10 12Z"
        fill="black" />
</svg>