<svg width="24" height="24" viewBox="0 0 24 24" fill="none" xmlns="http://www.w3.org/2000/svg">
    <path fill-rule="evenodd" clip-rule="evenodd"
        d="M16.0589 12.7038C17.8391 11.4347 19 9.35291 19 7C19 3.13401 15.866 0 12 0C8.13401 0 5 3.13401 5 7C5 9.35291 6.16089 11.4347 7.94114 12.7038C3.91754 14.1497 0.889952 17.6843 0.165917 22C0.0567976 22.6504 0 23.3186 0 24H24C24 23.3186 23.9432 22.6504 23.8341 22C23.11 17.6843 20.0825 14.1497 16.0589 12.7038ZM17 7C17 9.76143 14.7614 12 12 12C9.23858 12 7 9.76143 7 7C7 4.23858 9.23858 2 12 2C14.7614 2 17 4.23858 17 7ZM12 14C7.16208 14 3.12658 17.4355 2.20004 22H21.8C20.8734 17.4355 16.8379 14 12 14Z"
        fill="black" />
</svg>