<svg width="24" height="24" viewBox="0 0 24 24" fill="none" xmlns="http://www.w3.org/2000/svg">
    <path fill-rule="evenodd" clip-rule="evenodd"
        d="M16 2L4 7.99393H0V15.9858H2.23266L3.84579 22L5.77764 21.4829L4.35012 16.1607L16 21.9798V13.7206C16.5978 13.3751 17 12.7294 17 11.9899C17 11.2503 16.5978 10.6047 16 10.2592V2ZM6 14.751L14 18.747V5.23279L6 9.22874V14.751ZM4 9.9919V13.9879H2V9.9919H4Z"
        fill="black" />
    <path d="M22.1651 4.88111L17.835 7.37858L18.835 9.10888L23.1651 6.61141L22.1651 4.88111Z"
        fill="black" />
    <path d="M19 10.9909H24V12.9889H19V10.9909Z" fill="black" />
    <path d="M23.1652 17.3682L18.8351 14.8707L17.8351 16.601L22.1652 19.0985L23.1652 17.3682Z"
        fill="black" />
</svg>