<svg width="24" height="24" viewBox="0 0 24 24" fill="none" xmlns="http://www.w3.org/2000/svg">
    <path fill-rule="evenodd" clip-rule="evenodd"
        d="M0 10L12 22H2V24H24V19C24 19 24 17 22.0232 15C18.0697 11 17 9 17 3C16.223 3 15.5969 3.30186 15.0045 3.67104C14.8345 3.77699 14.6673 3.8885 14.5 4C13.75 4.5 13 5 12 5C10.6566 5 10.2155 3.6464 10.0708 2.75767C10 2.32332 10 2 10 2V0L0 10ZM12 7C11.1745 7 10.5183 6.7667 10 6.42045V12.9188L16.0802 18.9996H21.9967C21.9949 18.9827 21.9924 18.9613 21.9888 18.9359C21.9725 18.821 21.9356 18.6257 21.8533 18.3758C21.6909 17.8827 21.3465 17.1605 20.6008 16.4059C20.4657 16.2693 20.333 16.1341 20.2027 16H16V14H18.3857C18.1105 13.6674 17.8519 13.3353 17.6102 13H15V11H16.4032C16.3309 10.8512 16.2616 10.7007 16.1952 10.5481C16.1163 10.367 16.0423 10.1844 15.9727 10H14V8H15.4018C15.272 7.36381 15.1791 6.69742 15.1155 5.98974C14.3953 6.44661 13.342 7 12 7ZM22 20.9996V22H14.8284L2.82843 10L3.54082 9.28761L15.2518 20.9996H22ZM4.95503 7.87339L8 4.82843V10.9186L4.95503 7.87339Z"
        fill="black" />
    <path d="M1 21V19H7V21H1Z" fill="black" />
    <path d="M4 16H0V18H4V16Z" fill="black" />
</svg>